<svg data-v-423bf9ae="" xmlns="http://www.w3.org/2000/svg" viewBox="0 0 362 112" class="iconLeft"><!----><!----><!----><g data-v-423bf9ae="" id="c7ed6d37-c83c-44b4-a4f4-03eff5a39249" fill="#422230" transform="matrix(4.504504285197865,0,0,4.504504285197865,125.85584862930357,13.033033321234193)"><path d="M1.27 12.77L1.27 12.77L1.27 12.77Q1.25 12.36 1.23 11.75L1.23 11.75L1.23 11.75Q1.22 11.14 1.22 10.46L1.22 10.46L1.22 10.46Q1.22 9.77 1.21 9.09L1.21 9.09L1.21 9.09Q1.20 8.40 1.20 7.83L1.20 7.83L1.19 5.43L1.19 5.43Q1.19 5.49 1.18 5.34L1.18 5.34L1.18 5.34Q1.18 5.19 1.17 4.94L1.17 4.94L1.17 4.94Q1.16 4.68 1.18 4.35L1.18 4.35L1.18 4.35Q1.19 4.03 1.22 3.75L1.22 3.75L1.22 3.75Q1.25 3.46 1.31 3.26L1.31 3.26L1.31 3.26Q1.37 3.05 1.47 3.01L1.47 3.01L1.47 3.01Q1.61 2.94 1.69 2.93L1.69 2.93L1.69 2.93Q1.76 2.91 1.93 2.91L1.93 2.91L1.93 2.91Q2.13 2.91 2.35 2.86L2.35 2.86L2.35 2.86Q2.58 2.81 2.77 2.81L2.77 2.81L2.77 2.81Q2.97 2.81 3.17 2.79L3.17 2.79L3.17 2.79Q3.37 2.77 3.57 2.79L3.57 2.79L3.57 2.79Q3.89 2.80 4.24 2.83L4.24 2.83L4.24 2.83Q4.58 2.86 4.87 2.88L4.87 2.88L4.87 2.88Q5.36 2.94 5.77 3.20L5.77 3.20L5.77 3.20Q6.17 3.46 6.50 3.79L6.50 3.79L6.50 3.79Q6.83 4.14 7.06 4.56L7.06 4.56L7.06 4.56Q7.29 4.98 7.36 5.47L7.36 5.47L7.36 5.47Q7.36 5.53 7.38 5.57L7.38 5.57L7.38 5.57Q7.39 5.61 7.41 5.67L7.41 5.67L7.41 5.67Q7.42 5.71 7.41 5.80L7.41 5.80L7.41 5.80Q7.41 5.88 7.40 5.98L7.40 5.98L7.40 5.98Q7.39 6.08 7.38 6.17L7.38 6.17L7.38 6.17Q7.36 6.27 7.36 6.31L7.36 6.31L7.36 6.31Q7.32 6.72 7.13 7.09L7.13 7.09L7.13 7.09Q6.94 7.46 6.66 7.78L6.66 7.78L6.66 7.78Q6.38 8.09 6.04 8.34L6.04 8.34L6.04 8.34Q5.70 8.60 5.35 8.76L5.35 8.76L5.35 8.76Q4.90 8.97 4.47 9.07L4.47 9.07L4.47 9.07Q4.03 9.16 3.67 9.18L3.67 9.18L3.67 9.18Q3.30 9.21 3.03 9.21L3.03 9.21L3.03 9.21Q2.76 9.20 2.63 9.21L2.63 9.21L2.63 9.21Q2.62 9.21 2.62 9.41L2.62 9.41L2.62 9.41Q2.62 9.60 2.63 9.91L2.63 9.91L2.63 9.91Q2.63 10.21 2.65 10.56L2.65 10.56L2.65 10.56Q2.66 10.92 2.67 11.24L2.67 11.24L2.67 11.24Q2.67 11.56 2.69 11.80L2.69 11.80L2.69 11.80Q2.70 12.04 2.72 12.10L2.72 12.10L2.72 12.10Q2.72 12.12 2.72 12.22L2.72 12.22L2.72 12.22Q2.73 12.32 2.73 12.43L2.73 12.43L2.73 12.43Q2.73 12.53 2.72 12.62L2.72 12.62L2.72 12.62Q2.72 12.71 2.70 12.73L2.70 12.73L2.70 12.73Q2.67 12.85 2.49 12.91L2.49 12.91L2.49 12.91Q2.31 12.96 2.07 12.96L2.07 12.96L2.07 12.96Q1.83 12.96 1.60 12.91L1.60 12.91L1.60 12.91Q1.37 12.85 1.27 12.77ZM3.49 4.09L3.47 4.10L3.47 4.10Q3.28 4.10 3.07 4.14L3.07 4.14L3.07 4.14Q2.87 4.17 2.67 4.23L2.67 4.23L2.67 4.23Q2.59 4.45 2.57 4.70L2.57 4.70L2.57 4.70Q2.55 4.96 2.55 5.22L2.55 5.22L2.55 5.22Q2.55 5.49 2.56 5.75L2.56 5.75L2.56 5.75Q2.56 6.02 2.56 6.26L2.56 6.26L2.56 7.18L2.56 7.18Q2.56 7.22 2.56 7.32L2.56 7.32L2.56 7.32Q2.56 7.41 2.56 7.51L2.56 7.51L2.56 7.51Q2.56 7.62 2.56 7.73L2.56 7.73L2.56 7.73Q2.56 7.84 2.58 7.92L2.58 7.92L2.58 7.92Q3.11 7.99 3.54 7.95L3.54 7.95L3.54 7.95Q3.98 7.90 4.33 7.76L4.33 7.76L4.33 7.76Q4.68 7.63 4.96 7.43L4.96 7.43L4.96 7.43Q5.25 7.24 5.50 7.03L5.50 7.03L5.50 7.03Q5.95 6.64 6.04 6.12L6.04 6.12L6.04 6.12Q6.13 5.60 5.94 5.15L5.94 5.15L5.94 5.15Q5.75 4.70 5.31 4.39L5.31 4.39L5.31 4.39Q4.86 4.07 4.23 4.07L4.23 4.07L4.23 4.07Q4.05 4.07 3.86 4.07L3.86 4.07L3.86 4.07Q3.68 4.07 3.49 4.09L3.49 4.09ZM8.51 12.53L8.51 12.53L8.51 12.53Q8.48 12.32 8.48 12.04L8.48 12.04L8.48 12.04Q8.47 11.76 8.48 11.47L8.48 11.47L8.48 11.47Q8.48 11.17 8.49 10.89L8.49 10.89L8.49 10.89Q8.50 10.61 8.48 10.40L8.48 10.40L8.48 10.40Q8.47 9.98 8.46 9.72L8.46 9.72L8.46 9.72Q8.46 9.46 8.46 9.23L8.46 9.23L8.46 9.23Q8.46 9.00 8.46 8.74L8.46 8.74L8.46 8.74Q8.47 8.48 8.47 8.06L8.47 8.06L8.48 6.73L8.48 6.73Q8.50 5.94 8.53 5.13L8.53 5.13L8.53 5.13Q8.57 4.33 8.68 3.53L8.68 3.53L8.68 3.53Q8.86 3.47 9.06 3.36L9.06 3.36L9.06 3.36Q9.24 3.36 9.37 3.35L9.37 3.35L9.37 3.35Q9.51 3.35 9.65 3.49L9.65 3.49L9.65 3.49Q9.72 3.70 9.72 3.89L9.72 3.89L9.72 3.89Q9.72 5.04 9.70 6.17L9.70 6.17L9.70 6.17Q9.67 7.31 9.67 8.44L9.67 8.44L9.67 8.44Q9.67 9.41 9.69 10.36L9.69 10.36L9.69 10.36Q9.70 11.31 9.70 12.28L9.70 12.28L9.70 12.28Q9.70 12.50 9.65 12.61L9.65 12.61L9.65 12.61Q9.59 12.71 9.48 12.73L9.48 12.73L9.48 12.73Q9.38 12.75 9.25 12.73L9.25 12.73L9.25 12.73Q9.11 12.71 8.97 12.68L8.97 12.68L8.97 12.68Q8.85 12.66 8.72 12.65L8.72 12.65L8.72 12.65Q8.60 12.64 8.51 12.53ZM15.33 7.53L15.33 7.53L15.33 7.53Q15.58 7.90 15.67 8.41L15.67 8.41L15.67 8.41Q15.76 8.93 15.78 9.50L15.78 9.50L15.78 9.50Q15.79 10.07 15.76 10.62L15.76 10.62L15.76 10.62Q15.72 11.17 15.71 11.59L15.71 11.59L15.69 11.61L15.69 11.61Q15.69 11.90 15.67 12.28L15.67 12.28L15.67 12.28Q15.65 12.66 15.65 12.85L15.65 12.85L15.65 12.85Q15.46 12.87 15.27 12.90L15.27 12.90L15.27 12.90Q15.09 12.94 14.90 12.94L14.90 12.94L14.90 12.94Q14.83 12.80 14.70 12.71L14.70 12.71L14.70 12.71Q14.57 12.63 14.56 12.46L14.56 12.46L14.56 12.46Q14.48 12.49 14.41 12.51L14.41 12.51L14.41 12.51Q14.35 12.53 14.29 12.56L14.29 12.56L14.29 12.56Q14.22 12.59 14.13 12.61L14.13 12.61L14.13 12.61Q14.03 12.64 13.87 12.68L13.87 12.68L13.87 12.68Q13.68 12.73 13.49 12.77L13.49 12.77L13.49 12.77Q13.30 12.81 13.10 12.81L13.10 12.81L13.10 12.81Q13.08 12.81 13.08 12.82L13.08 12.82L13.08 12.82Q12.63 12.82 12.20 12.74L12.20 12.74L12.20 12.74Q11.77 12.66 11.41 12.33L11.41 12.33L11.41 12.33Q10.95 11.94 10.95 11.34L10.95 11.34L10.95 11.34Q10.95 11.30 10.95 11.30L10.95 11.30L10.95 11.10L10.95 11.10Q10.95 10.72 11.17 10.43L11.17 10.43L11.17 10.43Q11.40 10.14 11.73 9.93L11.73 9.93L11.73 9.93Q12.05 9.72 12.43 9.58L12.43 9.58L12.43 9.58Q12.81 9.45 13.13 9.39L13.13 9.39L13.13 9.39Q13.45 9.34 13.80 9.34L13.80 9.34L13.80 9.34Q14.14 9.34 14.46 9.28L14.46 9.28L14.46 9.28Q14.45 9.06 14.46 8.82L14.46 8.82L14.46 8.82Q14.46 8.58 14.39 8.36L14.39 8.36L14.39 8.36Q14.31 8.05 14.08 7.92L14.08 7.92L14.08 7.92Q13.85 7.78 13.56 7.78L13.56 7.78L13.56 7.78Q13.27 7.77 12.98 7.85L12.98 7.85L12.98 7.85Q12.70 7.94 12.49 8.08L12.49 8.08L12.49 8.08Q12.25 8.23 12.07 8.44L12.07 8.44L12.07 8.44Q11.89 8.64 11.72 8.85L11.72 8.85L11.72 8.85Q11.69 8.85 11.61 8.79L11.61 8.79L11.61 8.79Q11.54 8.72 11.45 8.64L11.45 8.64L11.45 8.64Q11.35 8.57 11.28 8.50L11.28 8.50L11.28 8.50Q11.20 8.43 11.17 8.43L11.17 8.43L11.17 8.43Q11.42 7.77 11.96 7.32L11.96 7.32L11.96 7.32Q12.49 6.87 13.10 6.72L13.10 6.72L13.10 6.72Q13.71 6.57 14.32 6.75L14.32 6.75L14.32 6.75Q14.92 6.93 15.33 7.53ZM14.55 10.23L14.55 10.23L14.55 10.23Q14.49 10.19 14.38 10.20L14.38 10.20L14.38 10.20Q14.27 10.21 14.20 10.18L14.20 10.18L14.20 10.18Q13.82 10.18 13.55 10.25L13.55 10.25L13.55 10.25Q13.29 10.32 12.92 10.44L12.92 10.44L12.92 10.44Q12.89 10.46 12.85 10.46L12.85 10.46L12.85 10.46Q12.81 10.47 12.78 10.50L12.78 10.50L12.78 10.50Q12.61 10.57 12.42 10.74L12.42 10.74L12.42 10.74Q12.22 10.91 12.19 11.10L12.19 11.10L12.19 11.10Q12.19 11.17 12.19 11.22L12.19 11.22L12.19 11.22Q12.19 11.27 12.22 11.34L12.22 11.34L12.22 11.34Q12.29 11.54 12.65 11.60L12.65 11.60L12.65 11.60Q13.01 11.66 13.41 11.63L13.41 11.63L13.41 11.63Q13.82 11.61 14.15 11.51L14.15 11.51L14.15 11.51Q14.49 11.41 14.50 11.30L14.50 11.30L14.50 11.30Q14.53 11.06 14.54 10.77L14.54 10.77L14.54 10.77Q14.55 10.47 14.55 10.23ZM18.38 12.32L18.38 12.32L18.38 12.32Q18.34 12.17 18.26 12.01L18.26 12.01L18.26 12.01Q18.17 11.86 18.09 11.72L18.09 11.72L18.09 11.72Q17.98 11.54 17.82 11.19L17.82 11.19L17.82 11.19Q17.65 10.84 17.46 10.42L17.46 10.42L17.46 10.42Q17.28 10.00 17.09 9.53L17.09 9.53L17.09 9.53Q16.91 9.06 16.76 8.63L16.76 8.63L16.76 8.63Q16.60 8.20 16.50 7.85L16.50 7.85L16.50 7.85Q16.39 7.50 16.37 7.29L16.37 7.29L16.37 7.29Q16.44 7.29 16.62 7.25L16.62 7.25L16.62 7.25Q16.80 7.20 17.00 7.15L17.00 7.15L17.00 7.15Q17.19 7.10 17.35 7.06L17.35 7.06L17.35 7.06Q17.51 7.03 17.54 7.06L17.54 7.06L17.54 7.06Q17.57 7.07 17.61 7.21L17.61 7.21L17.61 7.21Q17.65 7.35 17.70 7.53L17.70 7.53L17.70 7.53Q17.74 7.70 17.77 7.85L17.77 7.85L17.77 7.85Q17.81 8.01 17.82 8.06L17.82 8.06L17.82 8.06Q18.00 8.78 18.33 9.60L18.33 9.60L18.33 9.60Q18.65 10.43 19.03 11.06L19.03 11.06L19.03 11.06Q19.50 10.02 19.89 8.97L19.89 8.97L19.89 8.97Q20.29 7.91 20.73 6.87L20.73 6.87L20.73 6.87Q20.85 6.82 21.04 6.78L21.04 6.78L21.04 6.78Q21.22 6.75 21.41 6.76L21.41 6.76L21.41 6.76Q21.59 6.78 21.73 6.85L21.73 6.85L21.73 6.85Q21.88 6.92 21.92 7.08L21.92 7.08L21.92 7.08Q21.73 7.71 21.44 8.29L21.44 8.29L21.44 8.29Q21.15 8.88 20.89 9.49L20.89 9.49L20.89 9.49Q20.38 10.70 19.89 11.92L19.89 11.92L19.89 11.92Q19.39 13.15 18.70 14.27L18.70 14.27L18.70 14.27Q18.62 14.42 18.47 14.69L18.47 14.69L18.47 14.69Q18.31 14.97 18.14 15.25L18.14 15.25L18.14 15.25Q17.98 15.54 17.81 15.78L17.81 15.78L17.81 15.78Q17.64 16.02 17.50 16.10L17.50 16.10L17.50 16.10Q17.22 16.10 17.07 15.95L17.07 15.95L17.07 15.95Q16.93 15.81 16.73 15.62L16.73 15.62L16.59 15.27L16.59 15.27Q16.94 14.97 17.17 14.58L17.17 14.58L17.17 14.58Q17.40 14.20 17.67 13.82L17.67 13.82L17.67 13.82Q17.74 13.72 17.85 13.52L17.85 13.52L17.85 13.52Q17.96 13.31 18.07 13.09L18.07 13.09L18.07 13.09Q18.17 12.87 18.26 12.66L18.26 12.66L18.26 12.66Q18.34 12.45 18.38 12.32ZM27.26 12.19L27.26 12.19L27.26 12.19Q27.20 12.25 27.09 12.35L27.09 12.35L27.09 12.35Q26.98 12.45 26.91 12.49L26.91 12.49L26.91 12.49Q26.12 12.96 25.26 13.08L25.26 13.08L25.26 13.08Q24.39 13.20 23.65 12.93L23.65 12.93L23.65 12.93Q22.90 12.66 22.42 11.97L22.42 11.97L22.42 11.97Q21.94 11.28 21.94 10.15L21.94 10.15L21.94 10.15Q21.94 9.53 22.15 8.99L22.15 8.99L22.15 8.99Q22.36 8.44 22.74 7.97L22.74 7.97L22.74 7.97Q23.11 7.49 23.68 7.17L23.68 7.17L23.68 7.17Q24.25 6.86 24.85 6.80L24.85 6.80L24.85 6.80Q25.45 6.73 26.00 6.95L26.00 6.95L26.00 6.95Q26.56 7.17 26.92 7.74L26.92 7.74L26.92 7.74Q27.06 7.97 27.15 8.23L27.15 8.23L27.15 8.23Q27.23 8.48 27.24 8.75L27.24 8.75L27.24 8.75Q27.26 8.89 27.27 9.06L27.27 9.06L27.27 9.06Q27.29 9.23 27.26 9.37L27.26 9.37L27.26 9.37Q27.19 9.67 27.09 9.94L27.09 9.94L27.09 9.94Q27.05 10.05 26.84 10.13L26.84 10.13L26.84 10.13Q26.63 10.21 26.38 10.25L26.38 10.25L26.38 10.25Q26.12 10.29 25.89 10.31L25.89 10.31L25.89 10.31Q25.65 10.33 25.55 10.35L25.55 10.35L25.55 10.35Q24.99 10.40 24.44 10.42L24.44 10.42L24.44 10.42Q23.88 10.44 23.32 10.46L23.32 10.46L23.24 10.51L23.24 10.51Q23.20 10.67 23.24 10.82L23.24 10.82L23.24 10.82Q23.28 11.19 23.51 11.41L23.51 11.41L23.51 11.41Q23.73 11.63 24.02 11.76L24.02 11.76L24.02 11.76Q24.32 11.89 24.65 11.94L24.65 11.94L24.65 11.94Q24.99 11.98 25.27 11.98L25.27 11.98L25.27 11.98Q25.49 11.96 25.67 11.91L25.67 11.91L25.67 11.91Q25.84 11.87 26.03 11.77L26.03 11.77L26.03 11.77Q26.21 11.66 26.42 11.47L26.42 11.47L26.42 11.47Q26.64 11.28 26.95 10.96L26.95 10.96L26.95 10.96Q26.98 10.95 27.08 11.07L27.08 11.07L27.08 11.07Q27.17 11.20 27.28 11.36L27.28 11.36L27.28 11.36Q27.38 11.52 27.47 11.67L27.47 11.67L27.47 11.67Q27.57 11.82 27.58 11.84L27.58 11.84L27.58 11.84Q27.55 11.93 27.44 12.03L27.44 12.03L27.44 12.03Q27.33 12.14 27.26 12.19ZM26.17 9.37L26.17 9.37L26.17 9.37Q26.22 9.32 26.24 9.25L26.24 9.25L26.24 9.25Q26.26 9.18 26.26 9.11L26.26 9.11L26.26 9.11Q26.29 8.93 26.24 8.69L26.24 8.69L26.24 8.69Q26.18 8.44 26.08 8.29L26.08 8.29L26.08 8.29Q25.82 7.84 25.37 7.76L25.37 7.76L25.37 7.76Q24.92 7.67 24.46 7.86L24.46 7.86L24.46 7.86Q24.01 8.05 23.66 8.46L23.66 8.46L23.66 8.46Q23.31 8.86 23.25 9.41L23.25 9.41L23.25 9.41Q23.32 9.49 23.44 9.52L23.44 9.52L23.44 9.52Q23.46 9.53 23.66 9.53L23.66 9.53L23.66 9.53Q23.86 9.52 24.14 9.51L24.14 9.51L24.14 9.51Q24.43 9.49 24.77 9.47L24.77 9.47L24.77 9.47Q25.10 9.45 25.40 9.44L25.40 9.44L25.40 9.44Q25.69 9.42 25.91 9.40L25.91 9.40L25.91 9.40Q26.12 9.38 26.17 9.37ZM32.47 7.92L32.47 7.92L32.47 7.92Q32.35 7.94 32.26 7.93L32.26 7.93L32.26 7.93Q32.16 7.92 32.06 7.92L32.06 7.92L32.06 7.92Q32.03 7.91 31.95 7.91L31.95 7.91L31.95 7.91Q31.88 7.91 31.85 7.92L31.85 7.92L31.85 7.92Q31.47 8.02 31.15 8.23L31.15 8.23L31.15 8.23Q30.83 8.44 30.57 8.71L30.57 8.71L30.57 8.71Q30.31 8.99 30.11 9.29L30.11 9.29L30.11 9.29Q29.92 9.59 29.79 9.86L29.79 9.86L29.79 9.86Q29.79 10.09 29.80 10.49L29.80 10.49L29.80 10.49Q29.81 10.88 29.81 11.29L29.81 11.29L29.81 11.29Q29.81 11.70 29.79 12.08L29.79 12.08L29.79 12.08Q29.78 12.45 29.74 12.66L29.74 12.66L29.74 12.66Q29.71 12.78 29.55 12.83L29.55 12.83L29.55 12.83Q29.39 12.88 29.19 12.89L29.19 12.89L29.19 12.89Q28.99 12.89 28.80 12.88L28.80 12.88L28.80 12.88Q28.60 12.87 28.50 12.85L28.50 12.85L28.50 12.85Q28.50 11.49 28.52 10.16L28.52 10.16L28.52 10.16Q28.55 8.82 28.55 7.46L28.55 7.46L28.55 7.46Q28.55 7.31 28.56 7.15L28.56 7.15L28.56 7.15Q28.57 6.99 28.59 6.82L28.59 6.82L28.59 6.82Q28.71 6.82 28.90 6.79L28.90 6.79L28.90 6.79Q29.08 6.76 29.19 6.79L29.19 6.79L29.19 6.79Q29.36 6.83 29.49 6.94L29.49 6.94L29.49 6.94Q29.62 7.04 29.75 7.28L29.75 7.28L29.75 7.28Q29.79 7.46 29.79 7.66L29.79 7.66L29.79 7.66Q29.79 7.85 29.81 8.04L29.81 8.04L29.82 8.04L29.82 8.04Q30.02 7.85 30.23 7.63L30.23 7.63L30.23 7.63Q30.45 7.41 30.76 7.23L30.76 7.23L30.76 7.23Q31.07 7.06 31.49 6.97L31.49 6.97L31.49 6.97Q31.91 6.89 32.51 6.99L32.51 6.99L32.51 6.99Q32.58 7.04 32.59 7.17L32.59 7.17L32.59 7.17Q32.61 7.31 32.59 7.46L32.59 7.46L32.59 7.46Q32.56 7.60 32.53 7.74L32.53 7.74L32.53 7.74Q32.49 7.87 32.47 7.92ZM33.91 12.56L33.91 12.56L33.91 12.56Q33.84 11.69 33.84 10.82L33.84 10.82L33.84 10.82Q33.85 9.95 33.88 9.09L33.88 9.09L33.88 9.09Q33.88 9.00 33.89 8.92L33.89 8.92L33.89 8.92Q33.91 8.83 33.91 8.75L33.91 8.75L33.91 8.22L33.91 8.22Q33.91 7.73 33.96 7.23L33.96 7.23L33.96 7.23Q34.01 6.73 34.01 6.24L34.01 6.24L34.01 6.24Q34.01 6.22 34.00 6.03L34.00 6.03L34.00 6.03Q33.99 5.84 33.98 5.57L33.98 5.57L33.98 5.57Q33.98 5.31 33.97 5.00L33.97 5.00L33.97 5.00Q33.96 4.70 33.96 4.45L33.96 4.45L33.96 4.45Q33.95 4.19 33.94 4.00L33.94 4.00L33.94 4.00Q33.94 3.81 33.94 3.78L33.94 3.78L33.94 3.78Q33.96 3.63 34.01 3.54L34.01 3.54L34.01 3.54Q34.05 3.44 34.20 3.39L34.20 3.39L34.20 3.39Q34.86 3.16 35.51 3.09L35.51 3.09L35.51 3.09Q36.16 3.01 36.85 3.01L36.85 3.01L36.85 3.01Q36.92 3.01 36.97 3.02L36.97 3.02L36.97 3.02Q37.03 3.04 37.10 3.04L37.10 3.04L37.10 3.04Q37.45 3.08 37.79 3.14L37.79 3.14L37.79 3.14Q38.12 3.21 38.46 3.30L38.46 3.30L38.46 3.30Q38.61 3.35 38.75 3.42L38.75 3.42L38.75 3.42Q38.89 3.49 39.03 3.56L39.03 3.56L39.03 3.56Q39.19 3.63 39.34 3.70L39.34 3.70L39.34 3.70Q39.49 3.77 39.63 3.85L39.63 3.85L39.63 3.85Q39.84 3.98 40.10 4.24L40.10 4.24L40.10 4.24Q40.35 4.51 40.46 4.73L40.46 4.73L40.46 4.73Q40.54 4.93 40.57 5.15L40.57 5.15L40.57 5.15Q40.60 5.36 40.60 5.56L40.60 5.56L40.60 5.56Q40.60 5.89 40.50 6.15L40.50 6.15L40.50 6.15Q40.40 6.40 40.18 6.66L40.18 6.66L40.18 6.66Q39.89 7.03 39.50 7.29L39.50 7.29L39.50 7.29Q39.12 7.56 38.75 7.83L38.75 7.83L38.75 7.84L38.75 7.84Q39.06 7.97 39.38 8.12L39.38 8.12L39.38 8.12Q39.70 8.27 39.96 8.48L39.96 8.48L39.96 8.48Q40.22 8.68 40.41 8.95L40.41 8.95L40.41 8.95Q40.60 9.23 40.67 9.59L40.67 9.59L40.67 9.59Q40.68 9.67 40.70 9.76L40.70 9.76L40.70 9.76Q40.71 9.84 40.73 9.93L40.73 9.93L40.73 9.93Q40.74 9.98 40.73 10.04L40.73 10.04L40.73 10.04Q40.73 10.11 40.71 10.16L40.71 10.16L40.71 10.16Q40.68 10.53 40.54 10.91L40.54 10.91L40.54 10.91Q40.40 11.28 40.14 11.56L40.14 11.56L40.14 11.56Q39.55 12.21 38.79 12.50L38.79 12.50L38.79 12.50Q38.04 12.80 37.20 12.91L37.20 12.91L37.20 12.91Q36.83 12.95 36.47 12.97L36.47 12.97L36.47 12.97Q36.11 12.99 35.74 12.96L35.74 12.96L35.74 12.96Q35.56 12.95 35.29 12.93L35.29 12.93L35.29 12.93Q35.01 12.91 34.74 12.87L34.74 12.87L34.74 12.87Q34.47 12.82 34.24 12.75L34.24 12.75L34.24 12.75Q34.01 12.68 33.91 12.56ZM35.36 8.93L35.36 8.93L35.36 8.93Q35.34 9.21 35.34 9.49L35.34 9.49L35.34 9.49Q35.35 9.77 35.35 10.05L35.35 10.05L35.35 10.05Q35.35 10.42 35.34 10.79L35.34 10.79L35.34 10.79Q35.34 11.17 35.34 11.54L35.34 11.54L35.34 11.54Q35.42 11.56 35.57 11.59L35.57 11.59L35.57 11.59Q35.73 11.61 35.90 11.62L35.90 11.62L35.90 11.62Q36.06 11.63 36.22 11.64L36.22 11.64L36.22 11.64Q36.39 11.65 36.48 11.65L36.48 11.65L36.48 11.65Q36.71 11.65 36.95 11.64L36.95 11.64L36.95 11.64Q37.18 11.63 37.41 11.61L37.41 11.61L37.41 11.61Q37.81 11.54 38.25 11.30L38.25 11.30L38.25 11.30Q38.70 11.06 38.95 10.74L38.95 10.74L38.95 10.74Q39.40 10.19 39.27 9.65L39.27 9.65L39.27 9.65Q39.14 9.10 38.49 8.82L38.49 8.82L38.49 8.82Q38.26 8.72 38.03 8.67L38.03 8.67L38.03 8.67Q37.80 8.61 37.56 8.61L37.56 8.61L37.20 8.61L37.20 8.61Q37.03 8.61 36.77 8.62L36.77 8.62L36.77 8.62Q36.51 8.62 36.24 8.66L36.24 8.66L36.24 8.66Q35.97 8.69 35.73 8.76L35.73 8.76L35.73 8.76Q35.49 8.82 35.36 8.93ZM36.67 7.48L36.69 7.49L36.69 7.49Q36.75 7.49 36.91 7.43L36.91 7.43L36.91 7.43Q37.07 7.36 37.25 7.27L37.25 7.27L37.25 7.27Q37.44 7.18 37.60 7.11L37.60 7.11L37.60 7.11Q37.76 7.03 37.81 7L37.81 7L37.81 7Q38.05 6.89 38.32 6.71L38.32 6.71L38.32 6.71Q38.60 6.52 38.79 6.34L38.79 6.34L38.79 6.34Q39.27 5.89 39.16 5.41L39.16 5.41L39.16 5.41Q39.06 4.93 38.50 4.65L38.50 4.65L38.50 4.65Q38.04 4.41 37.65 4.38L37.65 4.38L37.65 4.38Q37.25 4.35 36.75 4.35L36.75 4.35L36.75 4.35Q36.67 4.35 36.53 4.37L36.53 4.37L36.53 4.37Q36.40 4.38 36.26 4.40L36.26 4.40L36.26 4.40Q36.12 4.42 35.99 4.45L35.99 4.45L35.99 4.45Q35.87 4.48 35.80 4.52L35.80 4.52L35.80 4.52Q35.71 4.56 35.65 4.63L35.65 4.63L35.65 4.63Q35.59 4.70 35.52 4.79L35.52 4.79L35.52 4.79Q35.46 5.28 35.45 5.91L35.45 5.91L35.45 5.91Q35.45 6.54 35.45 7.03L35.45 7.03L35.45 7.03Q35.45 7.06 35.45 7.10L35.45 7.10L35.45 7.10Q35.46 7.14 35.46 7.17L35.46 7.17L35.46 7.17Q35.45 7.35 35.53 7.51L35.53 7.51L35.53 7.51Q35.62 7.67 35.90 7.64L35.90 7.64L35.90 7.64Q36.05 7.67 36.28 7.63L36.28 7.63L36.28 7.63Q36.51 7.59 36.67 7.48L36.67 7.48ZM42.07 12.53L42.07 12.53L42.07 12.53Q42.04 12.32 42.03 12.04L42.03 12.04L42.03 12.04Q42.03 11.76 42.03 11.47L42.03 11.47L42.03 11.47Q42.04 11.17 42.05 10.89L42.05 10.89L42.05 10.89Q42.06 10.61 42.04 10.40L42.04 10.40L42.04 10.40Q42.03 9.98 42.02 9.72L42.02 9.72L42.02 9.72Q42.01 9.46 42.01 9.23L42.01 9.23L42.01 9.23Q42.01 9.00 42.02 8.74L42.02 8.74L42.02 8.74Q42.03 8.48 42.03 8.06L42.03 8.06L42.04 6.73L42.04 6.73Q42.06 5.94 42.09 5.13L42.09 5.13L42.09 5.13Q42.13 4.33 42.24 3.53L42.24 3.53L42.24 3.53Q42.42 3.47 42.62 3.36L42.62 3.36L42.62 3.36Q42.80 3.36 42.93 3.35L42.93 3.35L42.93 3.35Q43.06 3.35 43.20 3.49L43.20 3.49L43.20 3.49Q43.27 3.70 43.27 3.89L43.27 3.89L43.27 3.89Q43.27 5.04 43.25 6.17L43.25 6.17L43.25 6.17Q43.23 7.31 43.23 8.44L43.23 8.44L43.23 8.44Q43.23 9.41 43.25 10.36L43.25 10.36L43.25 10.36Q43.26 11.31 43.26 12.28L43.26 12.28L43.26 12.28Q43.26 12.50 43.20 12.61L43.20 12.61L43.20 12.61Q43.15 12.71 43.04 12.73L43.04 12.73L43.04 12.73Q42.94 12.75 42.80 12.73L42.80 12.73L42.80 12.73Q42.67 12.71 42.53 12.68L42.53 12.68L42.53 12.68Q42.41 12.66 42.28 12.65L42.28 12.65L42.28 12.65Q42.15 12.64 42.07 12.53ZM45.86 4.93L45.86 4.93L45.86 4.93Q46.13 5.07 46.22 5.31L46.22 5.31L46.22 5.31Q46.31 5.54 46.26 5.79L46.26 5.79L46.26 5.79Q46.20 6.03 46.02 6.22L46.02 6.22L46.02 6.22Q45.85 6.41 45.58 6.45L45.58 6.45L45.58 6.45Q45.21 6.51 44.97 6.32L44.97 6.32L44.97 6.32Q44.74 6.13 44.69 5.86L44.69 5.86L44.69 5.86Q44.65 5.59 44.78 5.30L44.78 5.30L44.78 5.30Q44.91 5.01 45.28 4.86L45.28 4.86L45.28 4.86Q45.47 4.77 45.61 4.82L45.61 4.82L45.61 4.82Q45.75 4.87 45.86 4.93ZM44.91 8.22L44.91 8.22L44.91 8.22Q44.91 8.09 44.93 7.88L44.93 7.88L44.93 7.88Q44.94 7.66 44.95 7.57L44.95 7.57L44.95 7.57Q45.04 7.57 45.25 7.55L45.25 7.55L45.25 7.55Q45.47 7.52 45.56 7.55L45.56 7.55L45.56 7.55Q45.70 7.56 45.84 7.60L45.84 7.60L45.84 7.60Q45.98 7.64 46.09 7.66L46.09 7.66L46.09 7.66Q46.12 7.78 46.13 8.16L46.13 8.16L46.13 8.16Q46.14 8.53 46.14 9.02L46.14 9.02L46.14 9.02Q46.14 9.51 46.14 10.06L46.14 10.06L46.14 10.06Q46.13 10.61 46.12 11.11L46.12 11.11L46.12 11.11Q46.10 11.61 46.09 11.98L46.09 11.98L46.09 11.98Q46.07 12.35 46.06 12.47L46.06 12.47L46.06 12.47Q46.05 12.60 45.87 12.65L45.87 12.65L45.87 12.65Q45.70 12.70 45.49 12.71L45.49 12.71L45.49 12.71Q45.28 12.71 45.08 12.69L45.08 12.69L45.08 12.69Q44.88 12.67 44.83 12.67L44.83 12.67L44.83 12.67Q44.83 12.54 44.83 12.20L44.83 12.20L44.83 12.20Q44.84 11.86 44.86 11.40L44.86 11.40L44.86 11.40Q44.87 10.93 44.88 10.42L44.88 10.42L44.88 10.42Q44.88 9.91 44.90 9.46L44.90 9.46L44.90 9.46Q44.91 9.00 44.91 8.67L44.91 8.67L44.91 8.67Q44.91 8.33 44.91 8.22ZM49.59 12.85L49.59 12.85L49.59 12.85Q49.13 12.88 48.68 12.87L48.68 12.87L48.68 12.87Q48.24 12.85 47.78 12.87L47.78 12.87L47.78 12.87Q47.63 12.88 47.48 12.91L47.48 12.91L47.48 12.91Q47.33 12.94 47.19 12.85L47.19 12.85L47.19 12.85Q47.15 12.73 47.13 12.64L47.13 12.64L47.13 12.64Q47.11 12.56 47.10 12.48L47.10 12.48L47.10 12.48Q47.10 12.40 47.12 12.31L47.12 12.31L47.12 12.31Q47.14 12.22 47.18 12.07L47.18 12.07L47.18 12.07Q47.22 11.93 47.43 11.65L47.43 11.65L47.43 11.65Q47.64 11.37 47.94 11.02L47.94 11.02L47.94 11.02Q48.24 10.67 48.59 10.28L48.59 10.28L48.59 10.28Q48.94 9.90 49.27 9.55L49.27 9.55L49.27 9.55Q49.60 9.20 49.87 8.93L49.87 8.93L49.87 8.93Q50.13 8.65 50.27 8.51L50.27 8.51L50.27 8.51Q50.39 8.40 50.48 8.27L50.48 8.27L50.48 8.27Q50.58 8.15 50.69 8.04L50.69 8.04L50.69 8.04Q50.12 7.98 49.43 7.95L49.43 7.95L49.43 7.95Q48.75 7.91 48.17 8.01L48.17 8.01L48.17 8.01Q48.02 8.04 47.86 8.06L47.86 8.06L47.86 8.06Q47.70 8.09 47.53 8.09L47.53 8.09L47.53 8.09Q47.52 7.99 47.45 7.86L47.45 7.86L47.45 7.86Q47.39 7.73 47.43 7.64L47.43 7.64L47.40 7.11L47.40 7.11Q47.57 7.01 47.80 7.02L47.80 7.02L47.80 7.02Q48.03 7.03 48.22 7L48.22 7L48.22 7Q48.27 7 48.53 6.99L48.53 6.99L48.53 6.99Q48.79 6.97 49.15 6.96L49.15 6.96L49.15 6.96Q49.52 6.96 49.93 6.96L49.93 6.96L49.93 6.96Q50.34 6.96 50.73 6.96L50.73 6.96L50.73 6.96Q51.11 6.97 51.41 6.99L51.41 6.99L51.41 6.99Q51.70 7 51.83 7.03L51.83 7.03L51.83 7.03Q51.97 7.04 52.08 7.13L52.08 7.13L52.08 7.13Q52.19 7.22 52.25 7.36L52.25 7.36L52.25 7.36Q52.32 7.50 52.32 7.67L52.32 7.67L52.32 7.67Q52.32 7.84 52.23 8.01L52.23 8.01L52.01 8.20L52.01 8.20Q51.72 8.46 51.25 8.95L51.25 8.95L51.25 8.95Q50.78 9.44 50.28 9.99L50.28 9.99L50.28 9.99Q49.78 10.54 49.34 11.07L49.34 11.07L49.34 11.07Q48.90 11.59 48.69 11.91L48.69 11.91L48.69 11.91Q49.07 11.97 49.53 11.94L49.53 11.94L49.53 11.94Q49.99 11.91 50.46 11.88L50.46 11.88L50.46 11.88Q50.92 11.84 51.34 11.84L51.34 11.84L51.34 11.84Q51.77 11.83 52.09 11.93L52.09 11.93L52.09 11.93Q52.12 12.10 52.15 12.21L52.15 12.21L52.15 12.21Q52.18 12.33 52.18 12.43L52.18 12.43L52.18 12.43Q52.19 12.53 52.17 12.63L52.17 12.63L52.17 12.63Q52.15 12.73 52.09 12.85L52.09 12.85L52.09 12.85Q52.00 12.88 51.65 12.88L51.65 12.88L51.65 12.88Q51.30 12.88 50.89 12.87L50.89 12.87L50.89 12.87Q50.48 12.87 50.11 12.86L50.11 12.86L50.11 12.86Q49.73 12.85 49.59 12.85Z"></path></g><!----><g data-v-423bf9ae="" id="2c5ac980-13dc-4db7-9f42-f36b13986394" transform="matrix(1.1111111111111112,0,0,1.1111111111111112,0.44444444444444287,0.44444444444444287)" stroke="none" fill="#A53E33"><path d="M50 0C22.388 0 0 22.388 0 50s22.388 50 50 50 50-22.388 50-50S77.612 0 50 0zM31.25 75V25l50.024 25L31.25 75z"></path></g><!----></svg>